<?xml version="1.0" encoding="UTF-8"?>
<svg id="Layer_2" data-name="Layer 2" xmlns="http://www.w3.org/2000/svg" viewBox="0 0 143.9999999806 144">
  <defs>
    <style>
      .cls-1 {
        fill: none;
      }

      .cls-1, .cls-2 {
        stroke-width: 0px;
      }

      .cls-2 {
        fill: #fff;
      }
    </style>
  </defs>
  <g id="Layer_1-2" data-name="Layer 1">
    <g>
      <rect class="cls-1" width="143.9999999806" height="144"/>
      <g>
        <path class="cls-2" d="M117.0543397518,86.8042602539V18.5446777344c0-5.3416137695-7.2155151367-8.4387817383-12.3862304688-5.3165893555l-48.4936523438,29.2817993164h-11.1931762695l72.073059082,44.2943725586Z"/>
        <path class="cls-2" d="M10.7654603573,34.3667602539c-2.2857055664-1.4047851562-5.2774658203-.690612793-6.6822509766,1.5951538086l-.6607666016,1.0751342773c-1.4047241211,2.2857666016-.6905517578,5.2775268555,1.5951538086,6.6822509766l21.9280395508,13.4764404297v37.776184082c0,3.5999145508,2.9183349609,6.5181884766,6.5181884766,6.5181884766h22.7106323242l48.4936523438,29.2817993164c5.170715332,3.1221923828,12.3862304688.0250244141,12.3862304688-5.3165893555v-12.8809204102l10.4323120117,6.4114379883c2.2857666016,1.4047851562,5.2775268555.6905517578,6.6822509766-1.5951538086l.6607666016-1.0751342773c1.4047851562-2.2857666016.690612793-5.2775268555-1.5951538086-6.6823120117L10.7654603573,34.3667602539Z"/>
      </g>
    </g>
  </g>
</svg>